<?xml version="1.0" encoding="utf-8"?>
<!-- Generator: Adobe Illustrator 22.1.0, SVG Export Plug-In . SVG Version: 6.00 Build 0)  -->
<svg version="1.1" id="Layer_1" xmlns="http://www.w3.org/2000/svg" xmlns:xlink="http://www.w3.org/1999/xlink" x="0px" y="0px"
	 viewBox="0 0 512 512" style="enable-background:new 0 0 512 512;" xml:space="preserve">
<style type="text/css">
	.st0{fill:#FCE575;}
	.st1{fill:#FFD551;}
	.st2{fill:#FFA730;}
	.st3{fill:#E58D23;}
	.st4{fill:#FF624B;}
	.st5{fill:#FFF4C1;}
	.st6{fill:#FCDA4F;}
	.st7{fill:#FF4B34;}
	.st8{fill:#CCC033;}
	.st9{fill:#99AF17;}
	.st10{fill:#FF9079;}
	.st11{fill:#EACF32;}
	.st12{fill:#F9BB32;}
	.st13{fill:#FFEA63;}
	.st14{fill:#FFEACF;}
	.st15{fill:#FFD59A;}
	.st16{fill:#FFC34C;}
	.st17{fill:#A56021;}
	.st18{fill:#FFDF74;}
	.st19{fill:#BF6C0D;}
	.st20{fill:#FFB74B;}
	.st21{fill:#8C4C17;}
	.st22{fill:#FCF9DE;}
	.st23{fill:#DB9C2E;}
	.st24{fill:#FFF9DC;}
	.st25{fill:none;}
</style>
<g>
	<g>
		<path class="st3" d="M286.776,430.509H78.662V182.92c0-55.989,45.388-101.377,101.377-101.377h5.359
			c55.989,0,101.377,45.388,101.377,101.377V430.509z"/>
	</g>
	<g>
		<path class="st19" d="M208.38,84.735c-8.208-2.082-16.805-3.192-25.661-3.192h0c-57.469,0-104.057,46.588-104.057,104.056v244.909
			h51.322V185.6C129.984,136.987,163.321,96.163,208.38,84.735z"/>
	</g>
	<g>
		<path class="st12" d="M392.75,430.509H184.636V254.77c0-55.989,45.388-101.377,101.377-101.377h5.359
			c55.989,0,101.377,45.388,101.377,101.377V430.509z"/>
	</g>
	<g>
		<path class="st23" d="M312.354,156.585c-8.208-2.082-16.804-3.192-25.66-3.192h-0.001c-57.469,0-104.056,46.588-104.056,104.056
			v173.059h51.322V257.45C233.958,208.837,267.295,168.014,312.354,156.585z"/>
	</g>
	<g>
		<path class="st8" d="M459.908,299.917c3.559-5.739,5.665-12.824,5.665-20.496c0-17.804-11.327-32.462-25.896-34.404
			c0.783-3.129,1.21-6.44,1.21-9.871c0-19.125-13.068-34.629-29.188-34.629c-16.12,0-29.188,15.504-29.188,34.629
			c0,3.405,0.421,6.692,1.193,9.801c-13.642,2.907-23.997,17.05-23.997,34.072c0,7.671,2.106,14.756,5.665,20.496
			c-13.113,3.398-22.933,17.247-22.933,33.823c0,19.125,13.068,34.629,29.188,34.629h77.564c1.455,0.265,2.944,0.402,4.461,0.402
			c16.12,0,29.188-15.504,29.188-34.629C482.841,317.163,473.021,303.315,459.908,299.917z"/>
	</g>
	<g>
		<path class="st17" d="M413.585,316.212L413.585,316.212c-1.964,2.33-5.149,2.33-7.113,0l-19.322-22.924
			c-1.964-2.33-1.964-6.109,0-8.439v0c1.964-2.33,5.149-2.33,7.113,0l19.322,22.924
			C415.549,310.103,415.549,313.882,413.585,316.212z"/>
	</g>
	<g>
		<g>
			<path class="st9" d="M361.068,333.337c0-16.576,9.82-30.425,22.933-33.823c-3.559-5.739-5.665-12.824-5.665-20.496
				c0-17.022,10.355-31.165,23.997-34.072c-0.772-3.109-1.193-6.395-1.193-9.801c0-15.259,8.323-28.204,19.874-32.817
				c-2.926-1.169-6.056-1.812-9.315-1.812c-16.12,0-29.188,15.504-29.188,34.629c0,3.405,0.421,6.692,1.193,9.801
				c-13.642,2.907-23.997,17.05-23.997,34.072c0,7.671,2.106,14.756,5.665,20.496c-13.113,3.398-22.933,17.247-22.933,33.823
				c0,19.125,13.068,34.629,29.188,34.629h18.63C374.136,367.966,361.068,352.462,361.068,333.337z"/>
		</g>
	</g>
	<g>
		<path class="st21" d="M414.33,310.466c-1.964,2.33-5.149,2.33-7.113,0l-19.322-22.924c-0.528-0.626-0.909-1.359-1.153-2.138
			c-1.541,2.341-1.408,5.73,0.408,7.885l19.322,22.924c1.964,2.33,5.149,2.33,7.113,0c1.436-1.704,1.818-4.181,1.153-6.301
			C414.612,310.103,414.479,310.289,414.33,310.466z"/>
	</g>
	<g>
		<path class="st19" d="M413.048,402.063h-0.817c-2.552,0-4.621-2.069-4.621-4.621V274.638c0-2.552,2.069-4.621,4.621-4.621h0.817
			c2.552,0,4.621,2.069,4.621,4.621v122.804C417.67,399.994,415.601,402.063,413.048,402.063z"/>
	</g>
	<g>
		<path class="st19" d="M411.985,351.721L411.985,351.721c-1.964-2.33-1.964-6.109,0-8.439l19.322-22.924
			c1.964-2.33,5.149-2.33,7.113,0l0,0c1.964,2.33,1.964,6.109,0,8.439l-19.322,22.924
			C417.134,354.052,413.949,354.052,411.985,351.721z"/>
	</g>
	<g>
		<path class="st17" d="M411.709,396.096V275.984c0-2.429,1.225-4.515,2.98-5.446c-0.626-0.332-1.319-0.521-2.049-0.521
			c-2.778,0-5.03,2.672-5.03,5.967v120.113c0,3.296,2.252,5.967,5.03,5.967c0.731,0,1.423-0.189,2.049-0.521
			C412.934,400.611,411.709,398.525,411.709,396.096z"/>
	</g>
	<g>
		<path class="st17" d="M413.103,347.703l19.322-22.924c1.964-2.33,5.149-2.33,7.113,0c0.116,0.137,0.223,0.281,0.326,0.427
			c0.153-1.729-0.326-3.523-1.443-4.848c-1.964-2.33-5.149-2.33-7.113,0l-19.322,22.924c-1.849,2.193-1.956,5.668-0.326,8.012
			C411.776,349.982,412.256,348.708,413.103,347.703z"/>
	</g>
	<g>
		<path class="st8" d="M462.181,474.015H79.028c-13.807,0-25-11.193-25-25v-4.759c0-35.899,29.101-65,65-65h303.154
			c35.898,0,65,29.101,65,65v4.759C487.181,462.822,475.989,474.015,462.181,474.015z"/>
	</g>
	<g>
		<path class="st9" d="M105.349,468.883v-2.38c0-36.847,29.871-66.718,66.718-66.718h296.514
			c-12.141-12.645-29.204-20.529-48.118-20.529H120.746c-36.847,0-66.718,29.871-66.718,66.718v2.38
			c0,14.172,11.489,25.661,25.661,25.661h26.175C105.527,472.356,105.349,470.64,105.349,468.883z"/>
	</g>
	<g>
		<path class="st11" d="M135.606,334.116c3.356-5.413,5.342-12.095,5.342-19.33c0-16.791-10.682-30.615-24.423-32.447
			c0.739-2.951,1.141-6.074,1.141-9.309c0-18.037-12.325-32.659-27.528-32.659s-27.528,14.622-27.528,32.659
			c0,3.211,0.397,6.311,1.125,9.243c-12.866,2.742-22.632,16.08-22.632,32.133c0,7.235,1.986,13.917,5.343,19.33
			c-12.367,3.205-21.628,16.266-21.628,31.899c0,18.037,12.325,32.659,27.528,32.659h73.152c1.372,0.25,2.777,0.379,4.208,0.379
			c15.203,0,27.528-14.622,27.528-32.659C157.234,350.382,147.973,337.322,135.606,334.116z"/>
	</g>
	<g>
		<path class="st17" d="M91.917,349.485L91.917,349.485c-1.853,2.198-4.856,2.198-6.709,0l-18.223-21.62
			c-1.853-2.198-1.853-5.761,0-7.959l0,0c1.853-2.198,4.856-2.198,6.709,0l18.223,21.62C93.77,343.724,93.77,347.287,91.917,349.485
			z"/>
	</g>
	<g>
		<g>
			<path class="st8" d="M42.388,365.636c0-15.633,9.261-28.694,21.628-31.899c-3.356-5.413-5.343-12.095-5.343-19.33
				c0-16.053,9.766-29.392,22.632-32.133c-0.728-2.932-1.125-6.032-1.125-9.243c0-14.391,7.849-26.599,18.743-30.95
				c-2.76-1.102-5.712-1.709-8.785-1.709c-15.203,0-27.528,14.622-27.528,32.659c0,3.211,0.397,6.311,1.125,9.243
				c-12.866,2.742-22.632,16.08-22.632,32.133c0,7.235,1.986,13.917,5.343,19.33c-12.367,3.205-21.628,16.266-21.628,31.899
				c0,18.037,12.325,32.659,27.528,32.659h17.57C54.713,398.295,42.388,383.673,42.388,365.636z"/>
		</g>
	</g>
	<g>
		<path class="st21" d="M92.62,344.065c-1.853,2.198-4.856,2.198-6.709,0l-18.223-21.62c-0.498-0.591-0.857-1.281-1.088-2.016
			c-1.454,2.208-1.328,5.404,0.385,7.436l18.223,21.62c1.853,2.198,4.856,2.198,6.709,0c1.355-1.607,1.714-3.943,1.088-5.943
			C92.886,343.723,92.76,343.899,92.62,344.065z"/>
	</g>
	<g>
		<path class="st19" d="M91.148,430.452h-0.244c-2.552,0-4.621-2.069-4.621-4.621V310.539c0-2.552,2.069-4.621,4.621-4.621h0.244
			c2.552,0,4.621,2.069,4.621,4.621v115.292C95.77,428.383,93.701,430.452,91.148,430.452z"/>
	</g>
	<g>
		<path class="st19" d="M90.409,382.974L90.409,382.974c-1.853-2.198-1.853-5.761,0-7.959l18.223-21.62
			c1.853-2.198,4.856-2.198,6.709,0h0c1.853,2.198,1.853,5.761,0,7.959l-18.223,21.62C95.265,385.172,92.261,385.172,90.409,382.974
			z"/>
	</g>
	<g>
		<path class="st17" d="M90.148,424.825v-113.28c0-2.291,1.155-4.258,2.811-5.136c-0.591-0.313-1.244-0.491-1.933-0.491
			c-2.62,0-4.744,2.52-4.744,5.628v113.28c0,3.108,2.124,5.628,4.744,5.628c0.689,0,1.342-0.178,1.933-0.491
			C91.303,429.082,90.148,427.115,90.148,424.825z"/>
	</g>
	<g>
		<path class="st17" d="M91.463,379.184l18.223-21.62c1.852-2.198,4.856-2.198,6.708,0c0.109,0.129,0.211,0.265,0.307,0.403
			c0.145-1.631-0.308-3.322-1.361-4.572c-1.852-2.198-4.856-2.198-6.708,0l-18.223,21.62c-1.743,2.068-1.845,5.345-0.307,7.556
			C90.211,381.334,90.664,380.132,91.463,379.184z"/>
	</g>
	<g>
		<path class="st11" d="M225.11,358.794c3.356-5.413,5.342-12.095,5.342-19.33c0-16.791-10.682-30.615-24.423-32.447
			c0.739-2.951,1.141-6.074,1.141-9.309c0-18.037-12.325-32.659-27.528-32.659s-27.528,14.622-27.528,32.659
			c0,3.211,0.397,6.311,1.125,9.243c-12.866,2.742-22.632,16.08-22.632,32.133c0,7.235,1.986,13.917,5.343,19.33
			c-12.367,3.205-21.628,16.266-21.628,31.899c0,18.037,12.325,32.659,27.528,32.659h73.152c1.372,0.25,2.777,0.379,4.208,0.379
			c15.203,0,27.528-14.622,27.528-32.659C246.738,375.06,237.477,361.999,225.11,358.794z"/>
	</g>
	<g>
		<path class="st17" d="M181.422,374.163L181.422,374.163c-1.853,2.198-4.856,2.198-6.709,0l-18.223-21.62
			c-1.853-2.198-1.853-5.761,0-7.959h0c1.852-2.198,4.856-2.198,6.709,0l18.223,21.62
			C183.274,368.402,183.274,371.965,181.422,374.163z"/>
	</g>
	<g>
		<g>
			<path class="st8" d="M131.893,390.314c0-15.633,9.261-28.694,21.628-31.899c-3.356-5.413-5.343-12.095-5.343-19.33
				c0-16.053,9.766-29.392,22.632-32.133c-0.728-2.932-1.125-6.032-1.125-9.243c0-14.391,7.849-26.599,18.743-30.95
				c-2.76-1.102-5.712-1.709-8.785-1.709c-15.203,0-27.528,14.622-27.528,32.659c0,3.211,0.397,6.311,1.125,9.243
				c-12.866,2.742-22.632,16.08-22.632,32.133c0,7.235,1.986,13.917,5.343,19.33c-12.367,3.205-21.628,16.266-21.628,31.899
				c0,18.037,12.325,32.659,27.528,32.659h17.57C144.218,422.973,131.893,408.351,131.893,390.314z"/>
		</g>
	</g>
	<g>
		<path class="st21" d="M182.125,368.743c-1.853,2.198-4.856,2.198-6.709,0l-18.223-21.62c-0.498-0.591-0.857-1.281-1.088-2.016
			c-1.454,2.208-1.328,5.404,0.385,7.436l18.223,21.62c1.853,2.198,4.856,2.198,6.709,0c1.355-1.607,1.714-3.943,1.088-5.943
			C182.391,368.401,182.265,368.577,182.125,368.743z"/>
	</g>
	<g>
		<path class="st19" d="M180.653,455.13h-0.244c-2.552,0-4.621-2.069-4.621-4.621V335.216c0-2.552,2.069-4.621,4.621-4.621h0.244
			c2.552,0,4.621,2.069,4.621,4.621v115.292C185.274,453.061,183.205,455.13,180.653,455.13z"/>
	</g>
	<g>
		<path class="st19" d="M179.913,407.652L179.913,407.652c-1.853-2.198-1.853-5.761,0-7.959l18.223-21.62
			c1.853-2.198,4.856-2.198,6.709,0h0c1.853,2.198,1.853,5.761,0,7.959l-18.223,21.62
			C184.769,409.85,181.765,409.85,179.913,407.652z"/>
	</g>
	<g>
		<path class="st17" d="M179.652,449.502v-113.28c0-2.291,1.155-4.258,2.811-5.136c-0.591-0.313-1.244-0.491-1.933-0.491
			c-2.62,0-4.744,2.52-4.744,5.628v113.28c0,3.108,2.124,5.628,4.744,5.628c0.689,0,1.342-0.178,1.933-0.491
			C180.808,453.76,179.652,451.793,179.652,449.502z"/>
	</g>
	<g>
		<path class="st17" d="M180.967,403.862l18.223-21.62c1.852-2.198,4.856-2.198,6.708,0c0.109,0.129,0.211,0.265,0.307,0.403
			c0.145-1.631-0.308-3.322-1.361-4.572c-1.852-2.198-4.856-2.198-6.708,0l-18.223,21.62c-1.743,2.068-1.845,5.345-0.307,7.556
			C179.716,406.012,180.168,404.81,180.967,403.862z"/>
	</g>
	<g>
		<path class="st5" d="M442.512,98.435h-8.837c-3.663-12.349-15.09-21.36-28.627-21.36c-4.153,0-8.107,0.85-11.701,2.382
			c0.212-1.595,0.324-3.222,0.324-4.874c0-20.212-16.385-36.597-36.597-36.597c-19.401,0-35.273,15.097-36.516,34.183
			c-2.273-0.501-4.631-0.773-7.054-0.773c-18.024,0-32.635,14.611-32.635,32.635c0,17.967,14.52,32.538,32.465,32.63v0.14h129.178
			c10.594,0,19.183-8.589,19.183-19.183l0,0C461.695,107.023,453.107,98.435,442.512,98.435z"/>
	</g>
	<g>
		<path class="st0" d="M321.926,104.03c0-18.024,14.611-32.635,32.635-32.635c2.423,0,4.781,0.272,7.054,0.773
			c0.756-11.601,6.922-21.721,15.995-27.88c-5.856-3.977-12.924-6.303-20.536-6.303c-19.4,0-35.273,15.097-36.516,34.183
			c-2.272-0.501-4.63-0.773-7.054-0.773c-18.024,0-32.635,14.611-32.635,32.635c0,17.967,14.52,32.538,32.465,32.63v0.14h41.057
			v-0.14C336.446,136.568,321.926,121.997,321.926,104.03z"/>
	</g>
	<g>
		<circle class="st19" cx="206.232" cy="114.853" r="15.322"/>
	</g>
	<g>
		<circle class="st19" cx="168.955" cy="150.973" r="15.322"/>
	</g>
	<g>
		<circle class="st9" cx="133.841" cy="450.909" r="15.322"/>
	</g>
	<g>
		<circle class="st23" cx="256" cy="305.917" r="15.322"/>
	</g>
	<g>
		<circle class="st23" cx="288.693" cy="342.936" r="15.322"/>
	</g>
	<g>
		<path class="st11" d="M464.576,359.47c-0.992,0-1.996-0.246-2.923-0.764c-2.893-1.618-3.926-5.273-2.309-8.166
			c12.604-22.54-4.037-32.938-4.752-33.369c-2.836-1.713-3.747-5.401-2.034-8.237c1.713-2.836,5.402-3.746,8.238-2.034
			c9.489,5.73,23.586,23.451,9.021,49.498C468.719,358.362,466.679,359.47,464.576,359.47z"/>
	</g>
	<g>
		<path class="st22" d="M425.198,111.794c-2.715,0-5.175-1.854-5.832-4.611c-3.806-15.979-20.101-13.684-20.793-13.575
			c-3.278,0.502-6.337-1.75-6.837-5.025s1.749-6.337,5.025-6.838c9.637-1.47,29.208,1.367,34.279,22.659
			c0.768,3.223-1.223,6.459-4.447,7.227C426.125,111.741,425.658,111.794,425.198,111.794z"/>
	</g>
	<g>
		<path class="st1" d="M372.85,227.629c-0.134,0-0.269-0.004-0.404-0.014c-3.307-0.22-5.809-3.078-5.589-6.385
			c0.776-11.672-13.576-23.854-19.172-27.563c-2.762-1.83-3.518-5.554-1.687-8.315c1.831-2.762,5.555-3.519,8.316-1.687
			c1.059,0.701,25.909,17.423,24.517,38.361C378.62,225.198,375.982,227.629,372.85,227.629z"/>
	</g>
</g>
</svg>
